# Wavefront Obj file
# 
# verts: 58 uv-s: 98
mtllib torpedo.mtl

g Cube.002_Cube.003

v -0.072433 0.092264 0.072433
v 0.072433 0.092264 0.072433
v 0.000000 0.092264 0.099566
v -0.072433 0.000195 0.072433
v 0.072433 0.000195 0.072433
v 0.000000 0.000251 0.099566
v -0.060169 1.359569 0.060169
v 0.060169 1.359569 0.060169
v 0.000000 1.372754 0.073355
v -0.072738 1.302212 0.072738
v 0.072738 1.302212 0.072738
v 0.000000 1.302155 0.099986
v -0.072738 0.629748 0.072738
v 0.072738 0.629748 0.072738
v 0.000000 0.629748 0.099986
v 0.057262 0.315263 0.057262
v 0.000000 0.315275 0.078712
v -0.057262 0.315263 0.057262
v 0.035213 0.092264 0.035213
v -0.035593 0.092264 0.035593
v 0.000000 0.092264 0.048926
v -0.072433 0.092264 -0.072433
v 0.072433 0.092264 -0.072433
v -0.099566 0.092264 0.000000
v 0.099566 0.092264 0.000000
v 0.000000 0.092264 -0.099566
v -0.072433 0.000195 -0.072433
v 0.072433 0.000195 -0.072433
v -0.099566 0.000251 0.000000
v 0.099566 0.000251 0.000000
v 0.000000 0.000251 -0.099566
v -0.060169 1.359569 -0.060169
v 0.060169 1.359569 -0.060169
v -0.073355 1.372754 0.000000
v 0.073355 1.372754 0.000000
v 0.000000 1.372754 -0.073355
v 0.000000 1.400425 0.000000
v -0.072738 1.302212 -0.072738
v 0.072738 1.302212 -0.072738
v -0.099986 1.302155 0.000000
v 0.099986 1.302155 0.000000
v 0.000000 1.302155 -0.099986
v -0.072738 0.629748 -0.072738
v -0.099986 0.629748 0.000000
v 0.099986 0.629748 0.000000
v 0.072738 0.629748 -0.072738
v 0.000000 0.629748 -0.099986
v -0.078712 0.315275 0.000000
v 0.078712 0.315275 0.000000
v 0.057262 0.315263 -0.057262
v 0.000000 0.315275 -0.078712
v -0.057262 0.315263 -0.057262
v 0.035213 0.092264 -0.035213
v -0.035593 0.092264 -0.035593
v -0.048926 0.092264 0.000000
v 0.048926 0.092264 0.000000
v 0.000000 0.092264 -0.048926
v 0.000000 0.000251 0.000000
# 58 positions

vt 0.915247 0.613900
vt 0.915247 0.707300
vt 0.804071 0.707300
vt 0.804139 0.613900
vt 0.915247 0.800699
vt 0.804139 0.800699
vt 0.915247 0.520501
vt 0.804071 0.520501
vt 0.915247 0.427101
vt 0.804139 0.427101
vt 0.809072 0.175839
vt 0.896021 0.198194
vt 0.879572 0.262430
vt 0.809571 0.278780
vt 0.859158 0.085904
vt 0.912593 0.133988
vt 0.943305 0.026703
vt 0.986070 0.117403
vt 0.935938 0.312397
vt 0.854730 0.371225
vt 0.986070 0.221344
vt 0.310523 0.062834
vt 0.404317 0.062834
vt 0.404317 0.874782
vt 0.310523 0.874851
vt 0.122936 0.062834
vt 0.216730 0.062834
vt 0.216730 0.874782
vt 0.122936 0.874851
vt 0.534944 0.299740
vt 0.614388 0.299740
vt 0.614388 0.658413
vt 0.534944 0.658413
vt 0.693805 0.299740
vt 0.770932 0.299740
vt 0.770932 0.658413
vt 0.693805 0.658413
vt 0.029143 0.874782
vt 0.029143 0.062834
vt 0.693805 0.043665
vt 0.770932 0.043665
vt 0.534944 0.043665
vt 0.614388 0.043665
vt 0.457817 0.658413
vt 0.457817 0.299740
vt 0.457817 0.043665
vt 0.632734 0.936444
vt 0.599971 0.848980
vt 0.661119 0.848980
vt 0.677219 0.891959
vt 0.632734 0.761515
vt 0.720199 0.728752
vt 0.720199 0.789900
vt 0.677679 0.806460
vt 0.720199 0.969208
vt 0.720199 0.908059
vt 0.444202 0.848971
vt 0.564430 0.848971
vt 0.564430 0.969199
vt 0.476966 0.936436
vt 0.476966 0.761507
vt 0.564430 0.728743
vt 0.915247 0.613900
vt 0.804139 0.613900
vt 0.804071 0.707300
vt 0.915247 0.707300
vt 0.915247 0.520501
vt 0.804071 0.520501
vt 0.809072 0.175839
vt 0.809571 0.278780
vt 0.879572 0.262430
vt 0.896021 0.198194
vt 0.859158 0.085904
vt 0.912593 0.133988
vt 0.310523 0.062834
vt 0.310523 0.874851
vt 0.122936 0.062834
vt 0.122936 0.874851
vt 0.216730 0.874782
vt 0.216730 0.062834
vt 0.534944 0.299740
vt 0.534944 0.658413
vt 0.614388 0.658413
vt 0.614388 0.299740
vt 0.693805 0.299740
vt 0.693805 0.658413
vt 0.693805 0.043665
vt 0.534944 0.043665
vt 0.614388 0.043665
vt 0.632734 0.936444
vt 0.677219 0.891959
vt 0.661119 0.848980
vt 0.599971 0.848980
vt 0.632734 0.761515
vt 0.677679 0.806460
vt 0.444202 0.848971
vt 0.476966 0.936436
vt 0.476966 0.761507
# 98 texture coordinates

vn 0.000000 0.000000 1.000000
vn -0.707107 0.000000 0.707107
vn -1.000000 0.000000 0.000000
vn 0.707107 0.000000 0.707107
vn 1.000000 0.000000 -0.000000
vn 0.000000 0.164312 0.986408
vn 0.000000 0.707031 0.707183
vn -0.577180 0.577690 0.577181
vn -0.696680 0.171099 0.696680
vn 0.696680 0.171099 0.696680
vn 0.577180 0.577690 0.577180
vn 0.986408 0.164312 -0.000000
vn 0.707183 0.707031 -0.000000
vn -0.707183 0.707031 0.000000
vn -0.986408 0.164312 -0.000000
vn 0.000000 1.000000 -0.000000
vn 0.706680 -0.034743 0.706680
vn 0.999430 -0.033770 0.000000
vn -0.706680 -0.034743 0.706680
vn 0.000000 -0.033770 0.999430
vn -0.703356 -0.102861 0.703356
vn 0.001213 -0.100347 0.994952
vn 0.703320 -0.103349 0.703320
vn 0.994918 -0.100687 0.000000
vn -0.999430 -0.033770 0.000000
vn 0.700436 -0.137036 0.700436
vn 0.991008 -0.133802 0.000000
vn -0.700524 -0.136138 0.700523
vn 0.002424 -0.133095 0.991100
vn -0.994987 -0.100008 0.000000
vn -0.991198 -0.132390 0.000000
vn 0.000000 -1.000000 -0.000386
vn 0.000000 -1.000000 0.000000
vn -0.000386 -1.000000 0.000000
vn -0.000386 -1.000000 -0.000386
vn 0.000386 -1.000000 -0.000386
vn 0.000386 -1.000000 0.000000
vn -0.000000 0.000000 -1.000000
vn -0.707107 0.000000 -0.707107
vn 0.707107 0.000000 -0.707107
vn 0.000000 0.164312 -0.986408
vn -0.696680 0.171099 -0.696680
vn -0.577181 0.577690 -0.577180
vn 0.000000 0.707031 -0.707183
vn 0.696680 0.171099 -0.696680
vn 0.577181 0.577690 -0.577181
vn 0.706680 -0.034743 -0.706680
vn -0.706680 -0.034743 -0.706680
vn -0.000000 -0.033770 -0.999430
vn -0.703356 -0.102861 -0.703356
vn 0.001213 -0.100347 -0.994952
vn 0.703320 -0.103349 -0.703320
vn 0.700436 -0.137036 -0.700436
vn -0.700524 -0.136138 -0.700524
vn 0.002424 -0.133095 -0.991100
vn 0.000000 -1.000000 0.000386
vn -0.000386 -1.000000 0.000386
vn 0.000386 -1.000000 0.000386
# 58 normals

usemtl torpedo
f 3/1/1 1/2/2 4/3/2 6/4/1
f 1/2/2 24/5/3 29/6/3 4/3/2
f 2/7/4 3/1/1 6/4/1 5/8/4
f 25/9/5 2/7/4 5/8/4 30/10/5
f 12/11/6 9/12/7 7/13/8 10/14/9
f 11/15/10 8/16/11 9/12/7 12/11/6
f 41/17/12 35/18/13 8/16/11 11/15/10
f 10/14/9 7/13/8 34/19/14 40/20/15
f 37/21/16 34/19/14 7/13/8 9/12/7
f 35/18/13 37/21/16 9/12/7 8/16/11
f 14/22/17 45/23/18 41/24/12 11/25/10
f 13/26/19 15/27/20 12/28/6 10/29/9
f 18/30/21 17/31/22 15/32/20 13/33/19
f 11/25/10 12/28/6 15/27/20 14/22/17
f 16/34/23 49/35/24 45/36/18 14/37/17
f 10/29/9 40/38/15 44/39/25 13/26/19
f 19/40/26 56/41/27 49/35/24 16/34/23
f 20/42/28 21/43/29 17/31/22 18/30/21
f 14/37/17 15/32/20 17/31/22 16/34/23
f 13/33/19 44/44/25 48/45/30 18/30/21
f 16/34/23 17/31/22 21/43/29 19/40/26
f 18/30/21 48/45/30 55/46/31 20/42/28
f 1/47/16 3/48/16 21/49/16 20/50/16
f 2/51/16 25/52/16 56/53/16 19/54/16
f 3/48/16 2/51/16 19/54/16 21/49/16
f 24/55/16 1/47/16 20/50/16 55/56/16
f 6/57/32 58/58/33 30/59/34 5/60/35
f 58/58/33 6/57/32 4/61/36 29/62/37
f 26/63/38 31/64/38 27/65/39 22/66/39
f 22/66/39 27/65/39 29/6/3 24/5/3
f 23/67/40 28/68/40 31/64/38 26/63/38
f 25/9/5 30/10/5 28/68/40 23/67/40
f 42/69/41 38/70/42 32/71/43 36/72/44
f 39/73/45 42/69/41 36/72/44 33/74/46
f 41/17/12 39/73/45 33/74/46 35/18/13
f 38/70/42 40/20/15 34/19/14 32/71/43
f 37/21/16 36/72/44 32/71/43 34/19/14
f 35/18/13 33/74/46 36/72/44 37/21/16
f 46/75/47 39/76/45 41/24/12 45/23/18
f 43/77/48 38/78/42 42/79/41 47/80/49
f 52/81/50 43/82/48 47/83/49 51/84/51
f 39/76/45 46/75/47 47/80/49 42/79/41
f 50/85/52 46/86/47 45/36/18 49/35/24
f 38/78/42 43/77/48 44/39/25 40/38/15
f 53/87/53 50/85/52 49/35/24 56/41/27
f 54/88/54 52/81/50 51/84/51 57/89/55
f 46/86/47 50/85/52 51/84/51 47/83/49
f 43/82/48 52/81/50 48/45/30 44/44/25
f 50/85/52 53/87/53 57/89/55 51/84/51
f 52/81/50 54/88/54 55/46/31 48/45/30
f 22/90/16 54/91/16 57/92/16 26/93/16
f 23/94/16 53/95/16 56/53/16 25/52/16
f 26/93/16 57/92/16 53/95/16 23/94/16
f 24/55/16 55/56/16 54/91/16 22/90/16
f 31/96/56 28/97/57 30/59/34 58/58/33
f 58/58/33 29/62/37 27/98/58 31/96/56

# 56 faces
